<?xml version="1.0" standalone="no"?>
<!DOCTYPE svg PUBLIC "-//W3C//DTD SVG 20010904//EN"
 "http://www.w3.org/TR/2001/REC-SVG-20010904/DTD/svg10.dtd">
<svg version="1.0" xmlns="http://www.w3.org/2000/svg"
 width="500.000000pt" height="500.000000pt" viewBox="0 0 500.000000 500.000000"
 preserveAspectRatio="xMidYMid meet">

<g transform="translate(0.000000,500.000000) scale(0.100000,-0.100000)"
fill="#000000" stroke="none">
<path d="M2230 4604 c-14 -2 -65 -9 -115 -15 -818 -98 -1396 -638 -1598 -1494
-75 -316 -86 -466 -94 -1270 -6 -725 -6 -731 48 -836 30 -60 105 -131 174
-165 57 -28 67 -29 218 -32 l157 -4 0 -67 c0 -116 64 -210 169 -246 39 -13
201 -15 1313 -15 901 0 1282 3 1313 11 54 14 128 75 157 133 16 29 22 61 24
111 l1 70 165 5 c160 5 165 6 230 38 78 38 144 106 185 190 l28 57 3 670 c3
724 -4 897 -44 1135 -46 275 -109 480 -215 700 -284 590 -782 935 -1467 1015
-115 14 -576 20 -652 9z m576 -295 c868 -84 1373 -637 1489 -1629 8 -69 15
-145 15 -170 l0 -45 -238 0 -237 0 -53 -28 -54 -28 -39 45 c-69 78 -108 90
-299 94 l-165 4 -47 -96 c-27 -53 -48 -98 -48 -101 0 -3 52 -5 115 -5 67 0
125 -5 142 -12 49 -22 91 -58 108 -95 26 -54 54 -234 55 -345 l0 -98 -74 0
c-172 0 -397 66 -519 153 -34 23 -35 22 -88 -68 l-40 -69 25 -20 25 -21 -201
-235 c-110 -129 -205 -235 -209 -235 -4 0 -30 32 -57 70 -60 84 -79 103 -157
150 -90 54 -149 67 -330 74 l-159 6 186 149 186 148 -31 57 c-18 32 -39 68
-48 81 l-16 24 -279 -223 -279 -223 -3 203 c-5 323 19 432 107 494 41 29 47
30 172 33 71 2 129 5 129 8 0 2 -21 47 -47 100 l-48 96 -165 -4 c-191 -4 -229
-15 -293 -87 l-39 -43 -51 24 c-49 22 -66 23 -288 26 l-236 3 4 57 c21 324 93
637 203 882 224 496 608 789 1151 879 68 11 144 22 169 24 107 8 456 6 556 -4z
m318 -2639 c82 -28 197 -48 320 -56 l106 -7 0 -193 0 -194 -452 0 -451 0 20
23 c11 12 102 118 202 235 100 116 185 212 190 212 4 0 34 -9 65 -20z m-990
-289 c27 -13 67 -43 88 -65 32 -35 438 -647 438 -662 0 -3 -273 -3 -607 -2
-680 3 -635 -2 -706 77 -20 22 -39 56 -42 75 -7 32 -3 39 47 88 98 96 128 188
128 395 l0 124 303 -3 c296 -3 303 -3 351 -27z m1470 -395 c14 -24 46 -64 71
-88 62 -59 59 -100 -11 -177 -60 -67 -87 -71 -458 -71 l-321 0 -67 104 c-37
57 -92 143 -123 190 l-55 86 469 0 469 0 26 -44z"/>
<path d="M2385 4090 c-373 -59 -655 -353 -706 -735 -20 -152 21 -324 146 -612
98 -224 389 -765 510 -948 57 -85 138 -117 227 -91 84 24 116 67 318 426 266
473 418 820 456 1041 43 250 -78 553 -290 730 -86 72 -223 142 -331 170 -93
23 -245 32 -330 19z m266 -370 c305 -95 446 -429 302 -714 -33 -66 -144 -176
-210 -210 -202 -102 -441 -62 -591 98 -97 104 -142 214 -142 346 0 275 222
499 496 500 54 0 103 -7 145 -20z"/>
<path d="M2400 3489 c-101 -45 -160 -138 -160 -249 1 -156 115 -270 271 -270
161 0 280 131 267 294 -6 69 -23 108 -71 162 -70 80 -207 108 -307 63z"/>
<path d="M198 1983 l-108 -64 0 -268 0 -268 108 -72 c59 -39 111 -71 115 -71
4 0 7 182 7 405 0 223 -3 405 -7 404 -5 0 -56 -30 -115 -66z"/>
<path d="M4700 1645 c0 -265 3 -405 10 -405 6 0 59 33 120 73 l110 72 0 265 0
265 -113 68 c-62 37 -116 67 -120 67 -4 0 -7 -182 -7 -405z"/>
</g>
</svg>
