<?xml version="1.0" standalone="no"?>
<!DOCTYPE svg PUBLIC "-//W3C//DTD SVG 20010904//EN"
 "http://www.w3.org/TR/2001/REC-SVG-20010904/DTD/svg10.dtd">
<svg version="1.0" xmlns="http://www.w3.org/2000/svg"
 width="200.000000pt" height="50.000000pt" viewBox="0 0 200.000000 50.000000"
 preserveAspectRatio="xMidYMid meet">

<g transform="translate(0.000000,50.000000) scale(0.100000,-0.100000)"
fill="#000000" stroke="none">
<path d="M156 440 c-70 -22 -99 -77 -100 -189 -1 -74 1 -85 19 -95 11 -6 24
-17 28 -23 6 -9 40 -13 112 -13 72 0 106 4 112 13 4 6 17 17 28 23 18 10 20
21 19 97 -1 92 -16 133 -64 169 -29 21 -112 31 -154 18z m154 -45 c25 -24 50
-77 50 -107 0 -5 -21 -8 -47 -8 -42 0 -45 -1 -28 -14 24 -17 14 -46 -14 -39
-14 3 -27 -2 -39 -16 -16 -20 -20 -21 -44 -8 -22 11 -25 16 -15 27 7 8 0 6
-15 -3 -28 -17 -28 -17 -28 7 0 14 8 30 18 35 13 8 6 10 -32 11 -45 0 -48 1
-42 23 3 12 6 27 6 34 0 17 50 73 74 84 12 5 45 7 74 6 42 -3 59 -10 82 -32z
m-19 -185 c5 0 9 -7 9 -15 0 -10 -11 -15 -35 -15 -33 0 -34 1 -23 20 7 11 19
18 26 15 8 -3 18 -5 23 -5z m-97 -26 c9 -8 21 -24 26 -35 10 -18 7 -19 -39
-19 -56 0 -61 4 -54 43 6 31 41 37 67 11z m111 -34 c0 -19 -55 -26 -66 -8 -15
24 -9 29 29 26 25 -2 37 -8 37 -18z"/>
<path d="M175 385 c-14 -13 -25 -31 -25 -39 0 -24 53 -126 65 -126 13 0 65
103 65 129 0 21 -44 61 -67 61 -8 0 -25 -11 -38 -25z m75 -25 c23 -44 -29 -80
-64 -44 -19 18 -19 20 -6 45 14 25 56 25 70 -1z"/>
<path d="M200 340 c0 -11 7 -20 15 -20 8 0 15 9 15 20 0 11 -7 20 -15 20 -8 0
-15 -9 -15 -20z"/>
<path d="M1080 386 c0 -21 5 -26 26 -26 21 0 25 4 22 23 -2 14 -11 23 -25 25
-19 3 -23 -1 -23 -22z"/>
<path d="M442 278 c3 -105 4 -113 23 -113 18 0 20 8 23 63 2 34 7 62 12 62 6
0 10 -3 10 -8 0 -4 11 -20 25 -35 30 -31 51 -26 75 17 21 40 29 31 32 -36 3
-55 5 -63 23 -63 19 0 20 8 23 113 l3 112 -25 0 c-18 0 -34 -14 -61 -50 -20
-27 -38 -50 -39 -50 -1 0 -19 23 -40 50 -27 36 -45 50 -62 50 l-25 0 3 -112z"/>
<path d="M1326 348 c-4 -36 -3 -123 3 -176 0 -8 10 -12 24 -10 20 3 22 9 25
68 l3 65 35 -40 34 -40 35 39 34 38 3 -63 c3 -57 5 -64 25 -67 29 -4 35 19 31
133 -3 88 -4 90 -28 92 -19 2 -32 -7 -58 -42 -18 -25 -36 -45 -41 -45 -5 0
-24 20 -42 45 -46 60 -76 61 -83 3z"/>
<path d="M727 323 c-13 -12 -7 -94 8 -122 16 -33 59 -48 82 -30 11 10 16 10
22 0 5 -7 17 -11 27 -9 17 3 19 13 19 83 0 70 -2 80 -19 83 -25 5 -36 -14 -36
-65 0 -39 -2 -43 -24 -43 -28 0 -36 16 -36 71 0 31 -4 39 -18 39 -10 0 -22 -3
-25 -7z"/>
<path d="M938 319 c-42 -24 -8 -99 44 -99 10 0 18 -4 18 -10 0 -13 -26 -13
-50 0 -13 7 -21 5 -31 -6 -11 -14 -10 -18 6 -30 25 -19 90 -18 109 2 19 19 21
58 3 72 -6 6 -24 13 -40 17 -38 10 -35 29 3 21 23 -4 32 -2 37 10 3 9 0 20 -8
25 -19 12 -70 11 -91 -2z"/>
<path d="M1078 313 c-4 -15 -3 -93 1 -141 1 -8 10 -12 24 -10 21 3 22 8 22 83
0 74 -2 80 -21 83 -14 2 -23 -3 -26 -15z"/>
<path d="M1178 300 c-25 -26 -29 -36 -24 -63 12 -62 85 -97 131 -63 26 19 13
48 -22 46 -47 -3 -53 -1 -53 24 0 28 23 40 49 26 12 -6 22 -5 29 2 18 18 14
36 -7 48 -35 18 -71 11 -103 -20z"/>
<path d="M1643 317 c-30 -13 -49 -62 -37 -94 5 -14 21 -35 36 -46 23 -17 32
-18 51 -10 17 8 28 8 35 1 6 -6 18 -8 27 -4 13 5 15 19 13 83 l-3 78 -50 1
c-28 1 -60 -3 -72 -9z m65 -71 c-2 -13 -12 -22 -26 -24 -29 -4 -42 26 -18 44
24 17 48 6 44 -20z"/>
<path d="M1800 209 c0 -119 0 -120 23 -117 18 2 23 10 25 43 3 40 4 41 36 37
62 -7 98 74 57 128 -16 20 -29 24 -80 26 l-61 3 0 -120z m100 56 c17 -20 5
-45 -20 -45 -11 0 -23 7 -26 15 -6 15 11 45 26 45 4 0 13 -7 20 -15z"/>
<path d="M32 215 c0 -16 2 -22 5 -12 2 9 2 23 0 30 -3 6 -5 -1 -5 -18z"/>
<path d="M392 215 c0 -16 2 -22 5 -12 2 9 2 23 0 30 -3 6 -5 -1 -5 -18z"/>
</g>
</svg>
